<?xml version="1.0" encoding="UTF-8" standalone="no"?>
<!-- Generator: Adobe Illustrator 23.0.1, SVG Export Plug-In . SVG Version: 6.00 Build 0)  -->

<svg
   version="1.1"
   id="Layer_1"
   x="0px"
   y="0px"
   viewBox="0 0 2000 2000"
   enable-background="new 0 0 2000 2000"
   xml:space="preserve"
   sodipodi:docname="imperial-aquila-seeklogo.com.svg"
   inkscape:version="1.1.2 (b8e25be833, 2022-02-05)"
   xmlns:inkscape="http://www.inkscape.org/namespaces/inkscape"
   xmlns:sodipodi="http://sodipodi.sourceforge.net/DTD/sodipodi-0.dtd"
   xmlns="http://www.w3.org/2000/svg"
   xmlns:svg="http://www.w3.org/2000/svg"><defs
   id="defs97">
	
	

		
		
		
		
		
		
		
		
		
		
		
		
		
		
		
		
		
		
	</defs><sodipodi:namedview
   id="namedview95"
   pagecolor="#ffffff"
   bordercolor="#666666"
   borderopacity="1.0"
   inkscape:pageshadow="2"
   inkscape:pageopacity="0.0"
   inkscape:pagecheckerboard="0"
   showgrid="false"
   inkscape:snap-bbox="true"
   inkscape:bbox-paths="true"
   inkscape:bbox-nodes="true"
   inkscape:snap-bbox-edge-midpoints="true"
   inkscape:snap-bbox-midpoints="true"
   inkscape:zoom="0.5"
   inkscape:cx="1619"
   inkscape:cy="1222"
   inkscape:window-width="1360"
   inkscape:window-height="704"
   inkscape:window-x="-4"
   inkscape:window-y="-4"
   inkscape:window-maximized="1"
   inkscape:current-layer="Layer_1"
   inkscape:snap-global="true" />
<path
   d="m 830.805,913.588 -8.501,5.222 4.692,50.297 c -16.745,18.744 -35.845,39.556 -52.76,58.148 l 0.662,-93.712 -8.589,1.971 -30.476,123.318 -69.634,40.684 52.472,-165.183 -8.079,-1.649 -90.259,179.566 -73.196,-10.757 110.747,-182.602 -10.362,-5.948 -146.96,173.869 c -22.97,-12.667 -44.468,-24.215 -67.859,-37.114 L 618.198,874.701 609.042,860.585 387.159,1017.021 309.879,959.939 592.1,819.828 587.373,802.226 268.347,923.116 196.231,854.703 583.845,757.955 587.185,738.83 156.051,814.682 90.919,743.053 598.816,699.477 610.181,683.135 61.283,709.755 1,630 h 761.297 c 0,4.45 -1.357,9.642 -0.197,13.455 C 579.5,735.5 667,951 906.503,804.805 l 48.122,49.445 -82.063,208.002 -66.343,-49.21 c 33.114,-26.709 71.114,-82.042 79.685,-114.409 2.194,-8.286 0.276,-12.107 -6.568,-12.73 -6.692,-0.609 -13.336,5.846 -9.787,12.987 2.001,4.016 6.189,6.93 6.189,6.93 -7.732,9.551 -26.502,34.554 -34.545,45.44 z"
   id="path54" /><path
   display="none"
   fill="#ed1c24"
   d="m 762.297,630.978 c 0,4.45 0.381,8.534 -0.197,12.477 -0.216,1.476 -2.479,2.966 -4.127,3.869 -21.735,11.907 -41.987,25.833 -58.963,44.041 -16.211,17.387 -28.935,36.913 -33.568,60.664 -8.111,41.578 10.825,76.322 50.056,92.379 20.452,8.371 41.84,9.788 63.525,7.684 43.354,-4.207 81.848,-21.754 118.625,-43.852 2.915,-1.751 5.797,-3.557 8.856,-5.436 l 45.955,48.627 c 1.165,1.263 1.947,4.09 1.361,5.585 l -81.257,205.236 c -22.078,-16.377 -44.095,-32.708 -66.343,-49.21 l 69.27,-91.683 c 4.616,-6.817 7.668,-14.877 10.415,-22.726 2.832,-8.09 0.276,-12.107 -6.568,-12.73 -6.692,-0.609 -12.358,6.07 -9.284,12.051 4.01,7.802 1.989,13.454 -3.087,19.723 -7.732,9.551 -14.729,19.697 -22.772,30.583 -2.554,-8.025 -4.456,-15.174 -7.174,-21.998 -1.172,-2.942 -3.674,-5.663 -6.214,-7.675 -3.294,-2.608 -6.503,-1.467 -8.501,2.222 -3.063,5.656 -3.593,11.734 -2.335,17.934 1.799,8.864 3.911,17.665 5.621,26.545 0.376,1.952 0.405,4.818 -0.726,6.084 -16.745,18.744 -33.713,37.29 -50.629,55.882 -0.829,0.744 -1.704,0.104 -1.71,-0.853 l 5.457,-84.487 c 0.134,-2.492 -1.948,-6.212 -4.084,-7.371 -1.747,-0.948 -5.696,0.375 -7.589,1.971 -2.013,1.698 -3.338,4.767 -3.963,7.469 -8.456,36.577 -16.676,73.209 -25.192,109.773 -0.625,2.684 -1.32,5.076 -4.777,7.29 l -66.178,38.47 52.199,-151.399 c 1.329,-3.876 1.13,-8.692 0.273,-12.784 -0.862,-4.122 -4.947,-5.236 -8.079,-2.649 -3.555,2.937 -7.111,6.567 -9.05,10.662 -25.146,53.089 -50.143,106.249 -74.757,159.586 -3.102,6.721 -6.451,11.318 -14.147,10.181 l -65.5,-11.62 106.747,-177.602 c 2.546,-4.264 3.907,-9.235 5.939,-14.171 -5.646,-1.584 -9.084,-0.647 -12.301,3.223 -47.493,57.129 -93.45,112.173 -141.037,169.225 -3.569,3.665 -5.923,4.644 -9.848,2.787 -22.97,-12.667 -40.543,-22.357 -63.934,-35.256 L 616.2,875.702 c 2.96,-2.817 5.202,-6.763 6.736,-10.601 1.58,-3.954 -1.254,-7.112 -5.412,-6.016 -4.355,1.148 -8.831,2.913 -12.48,5.501 -68.097,48.295 -141.069,100.112 -209.093,148.51 -4.487,2.844 -6.073,5.279 -12.063,1.509 L 309.88,959.94 588.1,821.828 c 5.137,-2.706 9.629,-5.772 11.819,-11.461 2.57,-6.674 0.189,-10.706 -6.782,-10.326 -4.016,0.219 -8.17,1.081 -11.919,2.535 -102.306,39.693 -204.578,79.473 -306.795,119.392 -3.761,1.469 -6.075,1.147 -8.95,-1.585 l -69.241,-65.68 388.614,-96.748 c 4.086,-1.019 8.252,-3.487 11.257,-6.428 1.887,-1.846 3.028,-6.453 2.013,-8.694 -0.981,-2.165 -5.131,-3.942 -7.93,-4.004 -4.875,-0.108 -9.803,1.119 -14.673,1.985 L 164.074,814.45 c -4.757,0.86 -8.023,0.231 -11.509,-3.649 L 90.919,743.052 598.816,699.476 c 4.905,-0.573 9.901,-4.287 13.882,-7.692 3.655,-3.127 2.268,-6.701 -2.517,-7.649 -3.816,-0.757 -7.824,-1.069 -11.711,-0.872 L 68.213,710.625 c -4.245,0.306 -6.931,-0.871 -9.579,-4.127 -18.249,-22.442 -36.709,-44.712 -54.965,-67.149 -1.422,-1.748 -3.738,-4.434 -2.67,-6.543 1.077,-2.127 4.609,-1.749 6.914,-1.751 z"
   id="path56" /><path
   d="m 1105.749,1216.276 c -5.182,5.21 -13.443,14.096 -18.986,20.052 -11.495,-25.948 -22.211,-52.254 -33.762,-78.329 -1.864,1.504 -4.885,5.101 -6,6 l 30.308,80.01 c -6.653,6.388 -17.407,17.785 -24.445,25.208 -10.01,-28.807 -18.991,-58.806 -28.864,-87.218 l -6,5 24.805,93 c -13.393,14.652 -28.898,29.229 -42.805,44.178 L 958.5,1280 l 27.5,-93 -6,-5 c -9.986,28.848 -20.409,58.096 -30.672,87.745 L 927.502,1245.68 958,1164 l -6,-6 c -11.489,25.928 -21.076,51.814 -32.831,78.343 l -19.645,-21.39 C 908.625,1191.944 921.556,1162.87 931,1140 L 880.199,1082 1000,762.207 1123.904,1082 1073,1140 Z"
   id="path58" /><g
   id="g5956"
   transform="rotate(26.963467,586.69221,1611.1988)"
   style="fill:#000000"><path
     id="rect5143"
     style="fill-rule:evenodd;fill:#000000"
     d="m 642.53626,1231.8791 4.85527,4.8934 16.70942,0.7801 -3.81036,-28.5677 -12.59305,-2.989 z m 47.76038,-31.2564 14.47979,0.3426 0,36.5854 -5.19144,-0.1768 -10.44255,-8.7743 z m -76.38204,2.6039 1.99281,34.4545 -14.0666,-0.4674 -4.72751,-5.1767 6.59944,-26.6169 m -30.41497,32.1306 h -8.76524 v -36.5854 h 8.76524"
     sodipodi:nodetypes="ccccccccccccccccccccc" /><rect
     style="fill:#000000"
     id="rect5167"
     width="16.768293"
     height="58.943089"
     x="711.8252"
     y="1189.7865" /><rect
     style="fill:#000000"
     id="rect5169"
     width="18.292677"
     height="108.23168"
     x="540.65039"
     y="1165.1422" /><rect
     style="fill:#000000"
     id="rect5171"
     width="33.028454"
     height="12.195122"
     x="533.28253"
     y="1277.2764" /><rect
     style="fill:#000000"
     id="rect5253"
     width="33.028454"
     height="12.195122"
     x="533.28253"
     y="1149.0447" /><path
     style="fill:#000000;stroke:none;stroke-width:1px;stroke-linecap:butt;stroke-linejoin:miter;stroke-opacity:1"
     d="m 534.65039,1196.2581 -542.9634115,11.5 -42.9634115,11.5 42.9634115,11.5 542.9634115,11.5 z"
     id="path5323"
     sodipodi:nodetypes="cccccc" /></g><path
   d="m 782.0685,1304.1938 19.5955,-47.3688 -16.57457,-3.325 -23.46002,23.7131 6.35739,18.6573 -24.22798,-14.9443 26.81804,-51.4892 41.47014,4.7311 71.378,-129.505 36.316,39.628 -77.554,104.857 21.19715,35.2626 -18.25415,30.6385 10.23065,24.6607 -28.4848,-14.0222 13.01033,-40.8014 -15.37805,-15.1037 -21.21981,27.2057 6.71529,21.4199 z"
   id="path62"
   sodipodi:nodetypes="cccccccccccccccccccc" /><path
   d="m 1009.553,758.954 c 18.057,-13.335 35.766,-26.463 53.581,-39.444 1.1,-0.801 3.175,-0.925 4.574,-0.545 7.566,2.058 15.123,4.196 22.532,6.744 1.596,0.549 3.349,2.736 3.71,4.447 2.885,13.688 5.538,27.427 8.017,41.195 0.347,1.927 0.083,4.783 -1.119,6.046 -19.926,20.943 -40.048,41.7 -60.803,63.199 -10.259,-27.469 -20.277,-54.291 -30.492,-81.642 z"
   id="path64" /><path
   d="m 900.385,779.173 c -2.128,-2.18 -2.773,-4.141 -2.128,-7.253 2.771,-13.371 5.29,-26.798 7.643,-40.25 0.578,-3.305 1.797,-5.021 5.18,-5.889 6.933,-1.778 13.681,-4.285 20.623,-6.019 1.954,-0.488 4.797,0.001 6.421,1.17 16.524,11.893 32.922,23.963 49.208,36.181 1.345,1.009 2.701,3.855 2.218,5.179 0,0 -19.194,51.801 -28.878,77.689 z"
   id="path66" /><path
   d="m 820.834,710.975 c -5.455,-5.085 -1.397,-11.288 1.189,-16.419 1.529,-3.034 3.008,-2.954 5.402,-2.954 49.478,0.009 98.955,-0.016 148.433,0.099 1.35,0.003 3.847,0.772 4.046,2.271 0.238,1.8 -2.13,2.917 -3.51,3.335 -23.992,7.275 -47.985,14.557 -72.11,21.37 -4.44,1.254 -5.886,3.418 -6.602,7.482 l -8.53,41.919 z m 44.129,13.24 c 4.548,0.082 8.507,-3.645 8.737,-8.224 0.238,-4.737 -3.769,-8.812 -8.626,-8.773 -4.666,0.037 -8.459,3.818 -8.457,8.428 0.004,4.58 3.809,8.487 8.346,8.569 z"
   id="path70" /><path
   d="m 1173.579,723.488 c 1.612,-1.266 4.518,-2.362 6.238,-1.782 15.177,5.113 30.221,10.623 46.035,16.276 -7.459,19.759 -14.78,39.152 -22.526,59.671 -3.961,-9.943 -7.589,-18.58 -10.808,-27.366 -1.265,-3.453 -3.353,-5.037 -6.778,-5.896 -15.154,-3.8 -30.259,-7.793 -46.379,-11.975 z"
   id="path72" /><path
   d="m 860.148,753.554 c -15.615,4.066 -30.438,8.057 -45.342,11.72 -4.054,0.997 -6.257,2.942 -7.68,6.914 -3.092,8.626 -6.755,17.048 -10.524,26.396 -7.652,-20.229 -14.947,-39.517 -22.457,-59.373 l 47.934,-18.578 z"
   id="path74" /><path
   d="m 1168.195,913.588 8.501,5.222 -4.692,50.297 c 16.745,18.744 35.844,39.556 52.76,58.148 l -0.662,-93.712 8.589,1.971 30.475,123.318 69.634,40.684 -52.472,-165.183 8.079,-1.649 90.259,179.566 73.196,-10.757 -110.747,-182.602 10.362,-5.948 146.96,173.869 c 22.97,-12.667 44.468,-24.215 67.859,-37.114 l -185.495,-174.997 9.156,-14.116 221.884,156.436 77.28,-57.082 -282.221,-140.111 4.727,-17.602 319.026,120.89 72.116,-68.413 -387.614,-96.748 -3.339,-19.125 431.134,75.852 65.132,-71.629 -507.897,-43.576 -11.365,-16.342 548.898,26.62 L 1998,630 h -761.297 c 0,4.45 1.357,9.642 0.197,13.455 C 1419.5,735.5 1332,951 1092.498,804.805 l -48.123,49.445 82.063,208.002 66.343,-49.21 c -33.115,-26.709 -71.115,-82.042 -79.685,-114.409 -2.194,-8.286 -0.276,-12.107 6.568,-12.73 6.692,-0.609 13.336,5.846 9.787,12.987 -2.001,4.016 -6.189,6.93 -6.189,6.93 7.732,9.551 26.502,34.554 34.545,45.44 z"
   id="path76" /><g
   id="g78">
		</g><g
   id="g80">
		</g><g
   id="g82">
		</g><g
   id="g84">
		</g><g
   id="g86">
		</g><g
   id="g88">
		</g>

<path
   id="path9976"
   style="fill:#000000;stroke-width:0.838384"
   d="m 1360.0785,1227.2758 c 0,22.9198 -9.2901,43.6698 -24.3101,58.6899 -7.5101,7.51 -11.9199,13.4104 -22.4736,15.6159 l -64.7477,-3.0493 -48.8189,-62.5912 10.8519,-1.7998 36.5547,42.0891 70.6578,-42.2021 -62.1716,1.8382 -22.3961,-36.621 -34.3916,2.4405 c -1.6332,0.1159 12.0453,-25.59 19.5554,-33.1 15.02,-15.0201 35.77,-24.3102 58.6898,-24.3102 45.8396,0 83,37.1604 83,83 z"
   sodipodi:nodetypes="ssccccccccssss" /><path
   d="m 1215.305,1328.166 35.7385,4.1374 49.535,-24.8085 -55.1237,-2.8655 -56.3218,-73.2194 22.164,-3.325 35.9363,39.3082 52.3168,-28.165 -49.3092,1.3066 -20.3663,-35.4967 -51.1246,3.7149 -57.378,-105.505 -36.316,39.628 63.554,80.857 -44.063,40.852 85.758,52.331 -46.508,-50.331 23,-24.25 z"
   id="path315"
   sodipodi:nodetypes="ccccccccccccccccccc" /><path
   d="m 1178.2987,710.975 c 5.455,-5.085 1.397,-11.288 -1.189,-16.419 -1.529,-3.034 -3.008,-2.954 -5.402,-2.954 -49.478,0.009 -98.955,-0.016 -148.433,0.099 -1.35,0.003 -3.847,0.772 -4.046,2.271 -0.238,1.8 2.13,2.917 3.51,3.335 23.992,7.275 47.985,14.557 72.11,21.37 4.44,1.254 5.886,3.418 6.602,7.482 l 8.53,41.919 z m -44.129,13.24 c -4.548,0.082 -8.507,-3.645 -8.737,-8.224 -0.238,-4.737 3.769,-8.812 8.626,-8.773 4.666,0.037 8.459,3.818 8.457,8.428 0,4.58 -3.809,8.487 -8.346,8.569 z"
   id="path477" /><path
   id="rect15454"
   d="m 1348.2656,1094.3026 17.3086,10.0208 c 0,0 -11.7385,10.8669 -10.0208,17.3085 1.7178,6.4416 17.3086,10.0207 17.3086,10.0207 l -10.0208,17.3086 c 0,0 -10.8669,-11.7385 -17.3085,-10.0208 -6.4416,1.7178 -10.0207,17.3086 -10.0207,17.3086 l -17.3086,-10.0208 c 0,0 11.7385,-10.8669 10.0208,-17.3085 -1.7178,-6.4416 -17.3086,-10.0207 -17.3086,-10.0207 l 10.0208,-17.3086 c 0,0 10.8669,11.7385 17.3085,10.0208 6.4416,-1.7178 10.0207,-17.3086 10.0207,-17.3086 z"
   sodipodi:nodetypes="ccsccsccsccsc" /><g
   id="g16757"
   transform="matrix(0.28011815,0,0,0.28011815,862.01006,414.11204)"><path
     d="M 985.4,471.6 C 963.6,395.5 880.4,387.7 831.4,399.9 797.7,273 632.1,275.4 552.3,354.2 533.2,322 525,279.3 523.7,255.2 c 24.3,1.2 49.1,4.6 72.4,10.6 9,-18.9 9,-49.8 0,-68.8 -23.2,6 -48.1,9.4 -72.4,10.7 1.3,-24.3 4.7,-49.1 10.7,-72.4 -9.5,-4.5 -22,-6.7 -34.4,-6.7 -12.4,0 -24.9,2.2 -34.4,6.7 6,23.2 9.4,48.1 10.7,72.4 -24.3,-1.4 -49.1,-4.7 -72.4,-10.7 -8.9,19 -8.9,49.8 0,68.8 23.3,-6 48.1,-9.4 72.4,-10.6 -1.3,24.1 -9.5,66.9 -28.7,99 C 367.8,275.4 202.2,273 168.5,399.9 119.4,387.7 36.3,395.5 14.5,471.6 -14.6,573 101,621.7 177,723.9 c 31.4,42.2 36.9,86.7 40.8,116.7 2.7,21.2 12.2,30.8 37.4,30.8 h 489.4 c 25.2,0 34.6,-9.6 37.4,-30.8 3.8,-29.9 9.4,-74.5 40.8,-116.7 76.1,-102.2 191.6,-151 162.6,-252.3 z M 251.3,750.2 C 204.5,633.7 92.8,568.7 109.8,501.3 c 6.8,-26.8 27,-43.5 58,-44.4 21.4,87.1 121.9,157 158.6,274.3 -32.3,5.7 -46.6,10 -75.1,19 z m 131.8,-27.3 c -19.5,-125.8 -136.7,-203 -85.9,-294.7 28,-50.6 96.4,-49.4 135.1,-24.9 -34.5,107.8 31.9,183.8 36,311.2 -21,0.4 -59.4,5.3 -85.2,8.4 z m 148.7,-8.4 C 535.9,587 602.2,511 567.7,403.3 c 38.7,-24.4 107.1,-25.7 135.1,24.9 50.9,91.7 -66.4,168.9 -85.8,294.7 -25.9,-3.1 -64.3,-8 -85.2,-8.4 z m 216.8,35.7 c -28.5,-8.9 -42.8,-13.3 -75,-19 36.7,-117.3 137.2,-187.2 158.6,-274.3 31,0.9 51.2,17.7 58,44.4 17,67.4 -94.7,132.4 -141.6,248.9 z"
     id="path16755" /></g></svg>
